<svg xmlns="http://www.w3.org/2000/svg" viewBox="0 0 315 70" xmlns:v="https://vecta.io/nano">
  <style>
    path { fill: #864; }
    @media (prefers-color-scheme: light) { path { fill: #111; } }
    @media (prefers-color-scheme: dark) { path { fill: #eee; } }
  </style>
  <path d="M309.359 1.061l.975.005 1.006.014 1.025.008 2.496.027.072 14.481.033 6.725.026 5.868.016 3.101c.071 7.443-.861 13.622-6.283 19.187-4.981 4.505-10.739 6.452-17.414 6.24-4.759-.259-9.451-2.176-12.984-5.403l-.702-.634c-4.244-4.028-6.514-9.409-6.682-15.227-.053-6.664 1.99-12.055 6.631-16.877 4.158-4.002 9.675-5.998 15.394-6.131 3.771.091 7.353.923 10.737 2.615l.012-.946.061-3.49.023-1.508.04-2.172.005-.676c.043-1.653.422-2.794 1.479-4.106 1.216-.973 2.514-1.115 4.033-1.1zm-24.008 26.026c-2.242 2.409-3.005 5.365-2.934 8.551.148 2.71 1.459 4.785 3.311 6.699 2.464 2.198 4.933 2.996 8.192 2.93 2.68-.271 5.287-1.559 7.06-3.587 1.933-2.546 2.89-4.902 2.674-8.128-.405-2.9-1.809-5.527-4.133-7.336-4.626-3.033-9.965-2.91-14.171.872zm-32.983-10.896c1.202.941 2.326 1.939 3.369 3.052 1.009-.431 1.696-1.048 2.493-1.795 2.265-2.125 2.265-2.125 3.644-2.085 2.24.683 4.806 3.097 5.977 5.135.32 1.423.31 2.737-.315 4.08-.484.691-1.067 1.176-1.707 1.725-2.634 2.273-3.775 5.018-4.034 8.472l-.037 2.837-.008 1.879-.018 4.658-.021 3.959-.001 1.844-.009 1.134-.002.994c-.17 1.465-.688 2.339-1.744 3.349-1.369.986-2.366 1.256-4.049 1.24l-1.016-.005-1.053-.014-1.069-.008-2.609-.027v-2.51l-.553.276c-5.483 2.625-11.603 2.954-17.387 1.1-.83-.329-1.622-.694-2.418-1.097l-.831-.416c-5.196-2.81-8.731-7.461-10.62-13.003-1.705-5.917-.976-12.158 1.97-17.537.677-1.086 1.418-2.08 2.231-3.068l.51-.657c6.932-8.461 20.547-9.68 29.308-3.511zm-20.841 11.384c-1.928 2.361-2.704 4.946-2.527 8 .345 2.781 1.523 5.255 3.672 7.079 2.952 2.188 5.796 2.628 9.4 2.246 2.533-.553 4.726-2.157 6.223-4.253 1.692-2.79 2.424-5.616 1.671-8.851-.937-2.846-2.826-5.33-5.487-6.777-4.594-2.097-9.517-1.165-12.952 2.556zm-30.172-12.794l.77.354c4.859 2.405 8.527 7.014 10.357 12.043 1.886 6.073 1.573 12.592-1.366 18.28-3.133 5.535-8.098 9.093-14.153 10.807-5.698 1.298-11.053.461-16.245-2.161l.009.959.022 3.55.011 1.531.012 2.212.009.682c0 1.84-.137 3.658-1.109 5.254-1.271 1.201-2.449 1.535-4.172 1.511l-1.051-.008-1.086-.021-1.106-.011-2.694-.041-.002-.539-.064-13.032-.031-6.302-.029-5.497-.014-2.907-.02-3.256.001-.959c-.043-3.66-.81-6.545-3.329-9.252l-1.136-1.041c-1.275-1.198-1.721-2.151-1.879-3.926.208-2.332 1.76-3.675 3.434-5.159 2.113-1.703 2.113-1.703 3.204-1.622 1.963.638 3.505 2.09 4.884 3.574 1.165-.388 1.826-1.251 2.66-2.121 6.241-6.008 16.61-6.561 24.113-2.899zm-17.094 11.994c-2.41 2.523-3.374 5.429-3.344 8.865.285 3.2 2.021 5.526 4.35 7.604 2.647 1.909 5.359 2.271 8.558 1.935 2.787-.663 5.007-2.321 6.661-4.641 1.717-2.904 2.071-5.924 1.246-9.181-.994-2.919-3.29-5.084-5.955-6.536-3.832-1.75-8.421-.756-11.516 1.954zm-31.485-8.037c4.03 3.503 6.059 8.085 6.545 13.346.071 2.104-.237 4.091-1.508 5.81-2.165 1.6-4.312 2.031-6.964 2.019h-.677l-2.205-.005-1.532-.001-4.026-.007-4.111-.006-8.061-.014.51 1.995.142.565c.639 2.453 1.688 4.326 3.806 5.757 2.525 1.478 5.141 1.819 7.977 1.112 2.31-.774 4.081-2.11 5.836-3.762.711-.663 1.44-1.287 2.193-1.902l.669-.549c1.169-.804 2.292-.801 3.689-.706 1.58.49 2.451 1.113 3.347 2.51.488 1.83.219 3.302-.558 5.02-2.454 4.209-6.49 6.675-11.121 7.913-6.355 1.606-13.587 1.062-19.365-2.126-4.773-2.981-7.72-7.491-9.081-12.916-.866-4.954-.795-10.392.802-15.182l.254-.796c1.685-4.706 5.126-8.242 9.559-10.429 7.763-3.315 17.053-2.88 23.879 2.353zm-20.105 7.384c-1.489 2.019-1.875 3.719-2.154 6.229h16.733c-.59-3.247-1.222-5.751-3.904-7.809-3.517-2.037-7.945-1.436-10.675 1.58zm-27.113-8.517c2.36 2.001 4.164 4.208 5.56 6.955l.269.527.725 1.686.226.568c.928 2.802.715 5.743.692 8.656l-.004 1.788-.021 4.678-.017 4.784-.041 9.367-3.486.052-.991.021c-2.276.019-4.056-.044-5.806-1.642-1.406-2.233-1.226-4.799-1.218-7.35l-.005-1.96-.012-5.569-.013-3.421.001-1.294c.022-3.26-.488-5.779-2.752-8.233-2.135-1.906-5-3.169-7.893-3.051-3.282.459-5.785 1.752-7.857 4.325-2.025 2.839-2.118 5.937-2.107 9.323l-.005 1.879-.012 5.337-.013 3.281.001 1.241c.028 4.055.028 4.055-1.121 5.527-1.981 1.819-4.337 1.674-6.887 1.604l-1.054-.015-2.554-.054-.043-9.274-.02-4.307-.016-4.166-.009-1.58c-.06-7.266 1.56-13.272 6.782-18.601l.551-.582c7.925-7.742 20.82-6.962 29.15-.499zM59.21 15.53c1.3.731 2.155 1.767 2.702 3.155.35 1.575.32 3.137.319 4.742l.003.928.003 3.033.003 2.113.002 4.429.007 5.104.005 4.926.004 2.088v2.925l.005.866c-.011 2.523-.182 4.89-2.025 6.773-1.6 1.091-3.359 1.267-5.229.924-1.644-.664-2.405-1.507-3.194-3.046-.631-1.893-.543-3.951-.542-5.923l-.003-.894-.003-2.911-.003-2.034-.002-4.258-.009-5.443-.004-4.199-.004-2.006v-2.811l-.005-.828c.011-2.409.118-4.832 1.746-6.731 1.935-1.461 3.957-1.976 6.223-.924zM59.542.61c1.523 1.104 2.338 1.953 2.649 3.852.022 1.726-.152 3.453-1.394 4.741-1.415 1.003-2.905 1.644-4.657 1.528-1.446-.302-2.83-.877-3.844-1.977-.956-1.51-1.147-3.163-.806-4.885.434-1.472 1.246-2.355 2.475-3.277 1.813-.583 3.772-.595 5.578.017zM.279 1.673l3.625-.07 1.032-.028c2.024-.022 3.408.067 5.104 1.214 1.076 1.45 1.283 2.879 1.285 4.645l.014.666.025 2.08.025 1.421.045 3.46.61-.288c5.571-2.588 11.729-3.008 17.588-1.088 5.86 2.315 10.355 6.33 12.966 12.091 1.065 2.481 1.601 5.003 1.744 7.691l.035.594c.167 5.654-1.856 11.109-5.613 15.303l-.635.715c-3.68 3.913-8.878 6.366-14.25 6.626-6.061.175-11.764-1.199-16.35-5.388l-.702-.634C2.916 46.967.327 41.827.178 36.384l.006-1.942V33.36l.011-2.898.007-3.043.018-5.745.018-6.548L.28 1.672zM14.711 26.93c-2.383 2.537-3.143 5.419-3.074 8.797.186 2.646 1.291 4.785 3.144 6.664 2.392 2.026 5.164 3.01 8.291 2.895 3.185-.369 5.663-1.749 7.692-4.219 1.849-2.699 2.191-5.526 1.865-8.715-.702-2.781-2.421-5.216-4.792-6.828-4.292-2.396-9.491-1.91-13.126 1.407z"/>
</svg>
