<svg xmlns="http://www.w3.org/2000/svg" viewBox="0 0 72 72" fill-rule="nonzero">
  <style>
    path { fill: #864; }
    @media (prefers-color-scheme: light) { path { fill: #111; } }
    @media (prefers-color-scheme: dark) { path { fill: #eee; } }
  </style>
  <path d="M63 18.548V65.25c0 3.727-3.023 6.75-6.75 6.75h-40.5C12.023 72 9 68.977 9 65.25V6.75C9 3.023 12.023 0 15.75 0h28.702a6.75 6.75 0 0 1 4.767 1.983l11.798 11.798C62.283 15.033 63 16.763 63 18.548zM45 6v12h12L45 6zm12 60V24H45c-2.982 0-6-2.972-6-6V6H15v60h42zm-33.738-8.64c1.472 0 2.62-.26 3.444-.78s1.408-1.26 1.752-2.22.516-2.088.516-3.384h0V40.368h-3.288v10.368c0 .928-.068 1.668-.204 2.22s-.376.944-.72 1.176-.828.348-1.452.348c-.608 0-1.084-.116-1.428-.348s-.58-.62-.708-1.164-.192-1.28-.192-2.208h0V40.368h-3.336v10.608c0 1.296.168 2.424.504 3.384s.912 1.7 1.728 2.22 1.944.78 3.384.78zm11.26-.36v-7.128h6.024v-2.736h-6.024v-4.032h6.888v-2.736H31.234V57h3.288zm20.356 0v-2.736H47.75c0-.272.092-.568.276-.888s.416-.64.696-.96l.864-.924.78-.756 1.8-1.836a9.67 9.67 0 0 0 1.416-1.992c.368-.696.552-1.42.552-2.172 0-1.056-.244-1.936-.732-2.64s-1.128-1.232-1.92-1.584-1.644-.528-2.556-.528c-.608 0-1.232.08-1.872.24a7.4 7.4 0 0 0-1.836.732 6.95 6.95 0 0 0-1.596 1.236h0l1.632 2.304c.368-.4.744-.716 1.128-.948s.764-.404 1.14-.516.732-.168 1.068-.168c.624 0 1.144.184 1.56.552s.624.888.624 1.56c0 .4-.12.804-.36 1.212a6.49 6.49 0 0 1-.972 1.236L48.11 48.72l-1.896 1.932c-.64.696-1.172 1.464-1.596 2.304s-.636 1.772-.636 2.796l-.024.576c-.016.272.008.496.072.672h0 10.848z"/>
</svg>
