<svg xmlns="http://www.w3.org/2000/svg" viewBox="0 0 72 72" fill-rule="nonzero">
  <style>
    path { fill: #864; }
    @media (prefers-color-scheme: light) { path { fill: #111; } }
    @media (prefers-color-scheme: dark) { path { fill: #eee; } }
  </style>
  <path d="M63 18.548V65.25c0 3.727-3.023 6.75-6.75 6.75h-40.5C12.023 72 9 68.977 9 65.25V6.75C9 3.023 12.023 0 15.75 0h28.702a6.75 6.75 0 0 1 4.767 1.983l11.798 11.798C62.283 15.033 63 16.763 63 18.548zM45 6v12h12L45 6zm12 60V24H45c-2.982 0-6-2.972-6-6V6H15v60h42zm-34.338-8.784c1.216 0 2.316-.16 3.3-.48s1.768-.86 2.352-1.62.876-1.804.876-3.132c0-.512-.084-1.012-.252-1.5s-.464-.94-.888-1.356-1.012-.76-1.764-1.032c.432-.24.808-.536 1.128-.888a3.84 3.84 0 0 0 .744-1.212c.176-.456.264-.94.264-1.452 0-.528-.084-1.048-.252-1.56s-.468-.98-.9-1.404-1.048-.764-1.848-1.02-1.824-.384-3.072-.384l-1.476.06-1.476.144-1.368.204h0v16.152l1.56.252 1.572.168 1.5.06zm-.024-10.248h-1.296v-3.816l.744-.072.768-.024c.416 0 .8.044 1.152.132s.636.264.852.528.324.66.324 1.188c0 .432-.096.8-.288 1.104a1.88 1.88 0 0 1-.852.708c-.376.168-.844.252-1.404.252h0zm.288 7.368a9.85 9.85 0 0 1-.816-.036l-.768-.06h0v-4.536h1.776c.576 0 1.076.08 1.5.24s.752.404.984.732.348.764.348 1.308c0 .64-.148 1.132-.444 1.476s-.676.576-1.14.696a5.73 5.73 0 0 1-1.44.18zM41.554 57v-2.736h-3.6v-11.16h3.6v-2.736H30.97v2.736h3.648v11.16H30.97V57h10.584zm5.14 0V45.96l1.488 2.76 1.38 2.772 1.284 2.76L52.022 57h0 2.64V40.368h-2.976v10.224l-.804-1.752-.996-2.064-1.116-2.196-1.2-2.196-1.212-2.016h0-2.64V57h2.976z"/>
</svg>
