<svg xmlns="http://www.w3.org/2000/svg" viewBox="0 0 72 72" fill-rule="nonzero">
  <style>
    path { fill: #864; }
    @media (prefers-color-scheme: light) { path { fill: #111; } }
    @media (prefers-color-scheme: dark) { path { fill: #eee; } }
  </style>
  <path d="M63 18.548V65.25c0 3.727-3.023 6.75-6.75 6.75h-40.5C12.023 72 9 68.977 9 65.25V6.75C9 3.023 12.023 0 15.75 0h28.702a6.75 6.75 0 0 1 4.767 1.983l11.798 11.798C62.283 15.033 63 16.763 63 18.548zM45 6v12h12L45 6zm12 60V24H45c-2.982 0-6-2.972-6-6V6H15v60h42zM22.22 42.168c.42 0 .786-.144 1.098-.432s.468-.672.468-1.152c0-.492-.156-.879-.468-1.161S22.64 39 22.22 39s-.786.141-1.098.423-.468.669-.468 1.161c0 .48.156.864.468 1.152s.678.432 1.098.432zm-1.836 14.22c.708 0 1.338-.123 1.89-.369s.99-.666 1.314-1.26.486-1.401.486-2.421h0v-8.82h-6.318v2.052h3.834v6.894c0 .66-.114 1.116-.342 1.368s-.552.378-.972.378c-.384 0-.813-.084-1.287-.252s-.885-.342-1.233-.522h0L17 55.524a10.17 10.17 0 0 0 1.602.621c.552.162 1.146.243 1.782.243zm9.903-3.204c1.08 0 1.935-.126 2.565-.378s1.083-.594 1.359-1.026a2.62 2.62 0 0 0 .414-1.44c0-.504-.099-.924-.297-1.26a2.61 2.61 0 0 0-.783-.837 5.25 5.25 0 0 0-1.062-.558l-1.116-.405-.927-.342c-.282-.108-.507-.234-.675-.378s-.252-.312-.252-.504c0-.18.111-.345.333-.495s.645-.225 1.269-.225c.396 0 .771.036 1.125.108a8.59 8.59 0 0 1 .945.243l.63.207h0l.396-2.106c-.396-.168-.861-.3-1.395-.396s-1.107-.144-1.719-.144c-.948 0-1.719.135-2.313.405s-1.032.63-1.314 1.08a2.74 2.74 0 0 0-.423 1.485c0 .492.099.903.297 1.233a2.63 2.63 0 0 0 .765.819 4.55 4.55 0 0 0 1.035.531l1.107.369.963.324a2.7 2.7 0 0 1 .711.369c.18.138.27.327.27.567 0 .264-.162.441-.486.531s-.792.135-1.404.135c-.54 0-1.08-.084-1.62-.252l-1.494-.522h0l-.396 2.088.864.324a8.65 8.65 0 0 0 1.161.315c.438.09.927.135 1.467.135zm10.191.054c.9 0 1.683-.213 2.349-.639s1.185-1.017 1.557-1.773.558-1.626.558-2.61c0-.996-.189-1.866-.567-2.61s-.9-1.323-1.566-1.737-1.443-.621-2.331-.621c-.864 0-1.632.207-2.304.621s-1.203.993-1.593 1.737-.585 1.614-.585 2.61c0 .984.189 1.854.567 2.61s.903 1.347 1.575 1.773 1.452.639 2.34.639zm-.036-2.16c-.444 0-.807-.12-1.089-.36s-.492-.573-.63-.999-.207-.921-.207-1.485.075-1.059.225-1.485.372-.756.666-.99.651-.351 1.071-.351c.444 0 .807.117 1.089.351s.492.564.63.99.207.921.207 1.485-.072 1.059-.216 1.485-.363.759-.657.999-.657.36-1.089.36zm8.427 1.89v-7.434l.585-.063.549-.027c.408 0 .723.087.945.261s.375.444.459.81.126.843.126 1.431h0v5.022h2.484v-5.346c0-.864-.111-1.62-.333-2.268s-.612-1.155-1.17-1.521-1.341-.549-2.349-.549c-.756 0-1.461.054-2.115.162l-1.647.342h0v9.18h2.466z"/>
</svg>
